<svg xmlns="http://www.w3.org/2000/svg" id="Layer_1" x="0" y="0" enable-background="new 0 0 100 100" version="1.1" viewBox="0 0 100 100" xml:space="preserve"><g id="Symbols_4_"><g id="Graphics-_x2F_-App-Icons-_x2F_-iTunes-"><g id="iTunes-Icon"><g id="Background_3_"><linearGradient id="path-2_7_" x1="-185.017" x2="-185.017" y1="748.266" y2="746.915" gradientTransform="matrix(60 0 0 -60 11151 44901)" gradientUnits="userSpaceOnUse"><stop offset="0" stop-color="#FC5BC4"/><stop offset="1" stop-color="#D03DEF"/></linearGradient><path id="path-2_4_" fill="url(#path-2_7_)" d="M63.6 5c9 0 13.5 0 18.4 1.5 5.3 1.9 9.5 6.1 11.4 11.4C95 22.8 95 27.4 95 36.4v27.2c0 9 0 13.5-1.5 18.4-1.9 5.3-6.1 9.5-11.4 11.4-5 1.6-9.5 1.6-18.5 1.6H36.4c-9 0-13.5 0-18.4-1.5-5.4-2-9.5-6.1-11.5-11.5C5 77.2 5 72.7 5 63.6V36.4c0-9 0-13.5 1.5-18.4 2-5.3 6.1-9.5 11.5-11.4C22.8 5 27.3 5 36.4 5h27.2z"/></g><defs><filter id="Adobe_OpacityMaskFilter" width="68.7" height="65.5" x="15.5" y="17" filterUnits="userSpaceOnUse"><feColorMatrix values="1 0 0 0 0 0 1 0 0 0 0 0 1 0 0 0 0 0 1 0"/></filter></defs><mask id="mask-3_2_" width="68.7" height="65.5" x="15.5" y="17" maskUnits="userSpaceOnUse"><g filter="url(#Adobe_OpacityMaskFilter)"><path id="path-2_3_" fill="#fff" d="M63.6 5c9 0 13.5 0 18.4 1.5 5.3 1.9 9.5 6.1 11.4 11.4C95 22.8 95 27.4 95 36.4v27.2c0 9 0 13.5-1.5 18.4-1.9 5.3-6.1 9.5-11.4 11.4-5 1.6-9.5 1.6-18.5 1.6H36.4c-9 0-13.5 0-18.4-1.5-5.4-2-9.5-6.1-11.5-11.5C5 77.2 5 72.7 5 63.6V36.4c0-9 0-13.5 1.5-18.4 2-5.3 6.1-9.5 11.5-11.4C22.8 5 27.3 5 36.4 5h27.2z"/></g></mask><g id="Icon_2_" mask="url(#mask-3_2_)"><g transform="translate(7 8)"><path id="Fill-1" fill="#fff" fill-opacity=".7" d="M75.9 32.5l-24.2-.1L44 9.9c-.4-1.2-2.1-1.2-2.5 0l-7.2 22.5-24.5.1c-1.3 0-1.8 1.6-.8 2.4L28.2 49l-7.5 23.8c-.4 1.2 1 2.2 2 1.5L43 60l20 14.2c1 .7 2.4-.3 2-1.5L57.5 49l19.2-14.2c1-.7.5-2.3-.8-2.3"/><path id="Fill-4" fill="#fff" d="M43 60l14.5-11-5.8-16.6H34.4L28.3 49z"/></g></g></g></g></g></svg>